PathFileType	4	(X/Y/Z)	Kaydara	
DataRate	CameraRate	NumFrames	NumMarkers	Units	OrigDataRate	OrigDataStartFrame	OrigNumFrames	
240.00	240.00	4	72	mm	240.00	45	355	
Frame#	Time	Hips			RightUpLeg			RightLeg			RightFoot			RightFoot_End			LeftUpLeg			LeftLeg			LeftFoot			LeftFoot_End			Spine			Spine1			Spine2			Spine3			Neck			Head			Head_End			RightShoulder			RightArm			RightForeArm			RightHand			RightHandThumb1			RightHandThumb2			RightHandThumb3			RightHandThumb3_End			RightInHandIndex			RightHandIndex1			RightHandIndex2			RightHandIndex3			RightHandIndex3_End			RightInHandMiddle			RightHandMiddle1			RightHandMiddle2			RightHandMiddle3			RightHandMiddle3_End			RightInHandRing			RightHandRing1			RightHandRing2			RightHandRing3			RightHandRing3_End			RightInHandPinky			RightHandPinky1			RightHandPinky2			RightHandPinky3			RightHandPinky3_End			LeftShoulder			LeftArm			LeftForeArm			LeftHand			LeftHandThumb1			LeftHandThumb2			LeftHandThumb3			LeftHandThumb3_End			LeftInHandIndex			LeftHandIndex1			LeftHandIndex2			LeftHandIndex3			LeftHandIndex3_End			LeftInHandMiddle			LeftHandMiddle1			LeftHandMiddle2			LeftHandMiddle3			LeftHandMiddle3_End			LeftInHandRing			LeftHandRing1			LeftHandRing2			LeftHandRing3			LeftHandRing3_End			LeftInHandPinky			LeftHandPinky1			LeftHandPinky2			LeftHandPinky3			LeftHandPinky3_End			
		X1	Y1	Z1	X2	Y2	Z2	X3	Y3	Z3	X4	Y4	Z4	X5	Y5	Z5	X6	Y6	Z6	X7	Y7	Z7	X8	Y8	Z8	X9	Y9	Z9	X10	Y10	Z10	X11	Y11	Z11	X12	Y12	Z12	X13	Y13	Z13	X14	Y14	Z14	X15	Y15	Z15	X16	Y16	Z16	X17	Y17	Z17	X18	Y18	Z18	X19	Y19	Z19	X20	Y20	Z20	X21	Y21	Z21	X22	Y22	Z22	X23	Y23	Z23	X24	Y24	Z24	X25	Y25	Z25	X26	Y26	Z26	X27	Y27	Z27	X28	Y28	Z28	X29	Y29	Z29	X30	Y30	Z30	X31	Y31	Z31	X32	Y32	Z32	X33	Y33	Z33	X34	Y34	Z34	X35	Y35	Z35	X36	Y36	Z36	X37	Y37	Z37	X38	Y38	Z38	X39	Y39	Z39	X40	Y40	Z40	X41	Y41	Z41	X42	Y42	Z42	X43	Y43	Z43	X44	Y44	Z44	X45	Y45	Z45	X46	Y46	Z46	X47	Y47	Z47	X48	Y48	Z48	X49	Y49	Z49	X50	Y50	Z50	X51	Y51	Z51	X52	Y52	Z52	X53	Y53	Z53	X54	Y54	Z54	X55	Y55	Z55	X56	Y56	Z56	X57	Y57	Z57	X58	Y58	Z58	X59	Y59	Z59	X60	Y60	Z60	X61	Y61	Z61	X62	Y62	Z62	X63	Y63	Z63	X64	Y64	Z64	X65	Y65	Z65	X66	Y66	Z66	X67	Y67	Z67	X68	Y68	Z68	X69	Y69	Z69	X70	Y70	Z70	X71	Y71	Z71	X72	Y72	Z72	

45	0.183	3921.0129	906.651	56.2195	4004.6121506990694	894.0161800112372	3.923717936385541	3923.1755547682214	493.93148672863225	-90.56831182053747	3896.7393329085494	107.25808640874666	-159.6290028764614	3821.683474451425	32.372777731969315	-0.5651613864765311	3846.761019537771	890.9833780603652	120.14495628631954	3780.418622197152	487.70009907282065	212.75770538567005	3742.4133271137807	56.18763378846145	297.5771525606489	3607.840042709995	-16.757215341962997	182.56580459639207	3876.6440380489853	1032.887102455539	5.4533342639806035	3827.279637238882	1098.5506681780687	-46.00957039642808	3770.7941371727165	1160.4485390003322	-102.31369051566101	3710.698048252084	1210.1702188864824	-160.29658100083967	3646.1125204599075	1263.6177503906274	-221.5796069799289	3586.055212935204	1312.1396593079835	-276.5470388199202	3469.2433385779204	1407.9278313719549	-328.70344435806226	3691.367756936721	1248.46662883414	-223.0965061373256	3752.284718359048	1238.111463098096	-336.53088611886966	3765.3369844553545	960.2859856121931	-328.15957019121873	3822.229116663384	718.6158128143853	-382.38032743213813	3824.9331344160064	698.8846665940478	-393.59599995089553	3814.0767819399516	685.6623505434394	-404.0423842894719	3807.2009326093985	675.1227715415542	-410.0075340040411	3802.0544162769465	665.1972739541993	-413.8599920532159	3829.320413118264	690.7950605851472	-389.74339330935567	3835.396944718318	649.8608397337498	-396.94697051399703	3830.6229922585408	629.4192317726196	-402.95695719556676	3821.684354294159	625.3873984159427	-407.74853821513386	3810.258445112133	627.9029588690258	-412.426268054312	3830.5427689491376	688.9805653152066	-385.9778425348066	3837.1333799176878	648.0708020068067	-390.9669198328671	3832.054380523988	625.668347689995	-397.00603821302656	3821.3327697698032	620.7577607884077	-402.53785872481285	3808.861145283313	623.4877263476636	-407.53507693497016	3831.3483978670215	688.6446668491062	-383.11640220078937	3838.2383236876235	651.4014790856677	-385.0532012425589	3833.933202803655	631.8422507702027	-389.7788005842525	3823.6560016325757	627.0880097940181	-394.82891307736753	3811.9601565412927	629.646537218254	-399.39213846320905	3831.3359955166507	690.2196517622206	-379.7456474013222	3837.97551953404	656.687542232706	-379.3884497415814	3834.6873216939557	641.1366328465433	-382.3246882893714	3827.2680889935787	637.7227604961391	-385.59813066568387	3816.9517871731787	640.0202140455239	-389.4043698834738	3643.014448666137	1243.834622622453	-177.79994968058548	3575.2193029905447	1178.6810946536402	-81.79467109170234	3693.63594657702	991.9758582929551	-209.0405623586231	3857.779273091464	807.8235453467565	-327.6759881101916	3843.003200397002	797.9983900389601	-348.2779904281164	3838.0542381963005	778.4546823611298	-383.1720479837183	3835.111488497125	762.8649017547245	-407.69866294029083	3833.0891506464227	748.174929921413	-428.33911419493035	3842.3567166003445	790.1065522884381	-349.97236734975957	3825.403843519495	755.2293529256284	-389.25101547629134	3819.463105815565	730.3935068621983	-421.96607196659363	3819.8897224217562	718.9619375988966	-442.02634290732726	3823.0218840325424	712.2041404460092	-458.4422536030552	3844.5951629064584	785.9096066691899	-349.47675415167345	3829.268940672647	749.6214679844483	-387.5183546230933	3823.1440762572856	722.079265798906	-423.0309090572675	3823.8304181545254	708.0757197565714	-447.14359159173085	3827.341016077118	700.5785159818302	-465.06215872249135	3846.5496812797433	783.820331211537	-348.07893211248916	3834.3367681901723	749.4438794719521	-380.8257308070452	3829.388689714567	725.0442309793591	-411.52896349456364	3830.2580423543914	711.3276012919935	-434.6549839266748	3833.6571428738207	704.1792528868374	-451.44012424512175	3849.76263287657	782.5341931233306	-345.68711480131594	3840.336492709191	750.1526884575492	-374.10827467028787	3837.0369950086115	730.1500548105764	-398.1623410464795	3837.9916927175045	719.920492903082	-414.77323845181337	3841.18724236452	713.4589653693158	-429.49405476388984
46	0.188	3921.0129	906.651	56.2195	4004.536872375634	893.9938649092744	3.917697529650995	3923.109773742692	493.8825619853314	-90.45441429810371	3896.853647471351	107.26051036722268	-159.61231533726001	3821.79555664246	32.369378646866636	-0.5525445500687491	3846.82851827632	891.0015480331133	120.14685500642936	3780.4869796932735	487.7260624354538	212.78784952083785	3742.472383482104	56.21421578296332	297.5804620609786	3607.9242041959246	-16.760421077230486	182.56320834667153	3876.6807479257423	1032.906548213763	5.472231402717689	3827.4303414690344	1098.698542164729	-45.94725135694156	3771.013400851076	1160.6850956536534	-102.22958691668276	3710.9383228149795	1210.4447038210126	-160.20645809711718	3646.3752850268856	1263.9328939344873	-221.48203101699806	3586.3391042192857	1312.49224177494	-276.44214230673333	3469.539127580325	1408.2984965640835	-328.5884438541954	3691.6193129241633	1248.7793350434351	-222.99117549038502	3752.567342512652	1238.581385870666	-336.42823990977473	3765.6210918900247	960.8541309028502	-328.2521063564869	3822.2299204165797	719.3882354386897	-382.98422116186634	3825.0008282533336	699.7691379374565	-394.218828051413	3814.174203845728	686.5559103860869	-404.7399028750796	3807.3038709574525	676.0116559349199	-410.76496206946086	3802.1489628246754	666.0728468978226	-414.6741182170462	3829.3393844625393	691.6590135166449	-390.39372612007077	3835.3891870339917	650.7863986086932	-397.708535862638	3830.5988924383805	630.3414613571188	-403.80946447417136	3821.6657784743106	626.2863818818713	-408.6499513151907	3810.255020740244	628.7684177413898	-413.36301147719314	3830.521475188657	689.8102476655145	-386.6464207447123	3837.0642352900736	648.9420489789456	-391.75385572894896	3831.962180045727	626.5311821954472	-397.89427348483036	3821.244727522536	621.5902560673342	-403.4860868338153	3808.7884629084538	624.2824247317086	-408.5224444700245	3831.299211309707	689.4489744385961	-383.79496828501584	3838.1216671555267	652.2222072640451	-385.8463232849351	3833.7911887184055	632.6506918131574	-390.66213873938415	3823.515203848731	627.8645548593132	-395.77114083095086	3811.832476907569	630.3862963960426	-400.37165096110385	3831.2564398038307	690.9897028582303	-380.4330041714184	3837.814922174197	657.4529295715748	-380.18611865607437	3834.4985047435293	641.884375712244	-383.19710054159685	3827.0763306577905	638.4434628502216	-386.51470701399194	3816.7694461196706	640.7061571931457	-390.35467105146046	3643.2735454647677	1244.1241823696428	-177.71526880642074	3575.4820780242326	1179.0080773116617	-81.7543622392429	3693.753103105084	992.3539302516726	-209.12468709180328	3857.818500559933	808.3821091965812	-327.8300035892937	3842.9816563535956	798.6830222056169	-348.3688458631857	3837.9505544539147	779.2423739929527	-383.2348392507065	3834.953723055622	763.7162553163661	-407.75317967603235	3832.8889686594675	749.0724193811554	-428.39637357953256	3842.342982684667	790.775434316423	-350.09712118492934	3825.3112085695157	756.0291810272442	-389.3758968597896	3819.3038077216497	731.2751142780517	-422.0948022301412	3819.6861075172324	719.8857013889564	-442.15034083470715	3822.779650996293	713.1569381436084	-458.55752773995914	3844.5921026436818	786.5514331058935	-349.6323326097028	3829.1946996396737	750.376383639548	-387.6907296982382	3822.9987421038904	722.9194128395056	-423.21155570281223	3823.632408879834	708.964804025454	-447.3204824225978	3827.1011362373956	701.4984342204643	-465.23045419480906	3846.5562994787624	784.439769489151	-348.2563208366097	3834.288358919613	750.1454323346509	-381.03720871171083	3829.280112089797	725.8157979658839	-411.75178587788315	3830.099609775074	712.1441027585729	-434.8763792613575	3833.459793818969	705.0236701367493	-451.6544783918732	3849.7817145330464	783.1234988172941	-345.88935747995237	3840.3131779253436	750.7990026847268	-374.35722527488014	3836.968542157372	730.8454073693223	-398.4266773420393	3837.888347207693	720.6452222639164	-415.0395820268713	3841.050270116086	714.2064674842414	-429.7559155086263
47	0.192	3921.0129	906.651	56.2195	4004.4583337182107	893.969246226661	3.9108882712861237	3923.034339284777	493.8319420194572	-90.33812819276334	3896.962577277129	107.26257124924847	-159.59489910731673	3821.902116083254	32.36540691687271	-0.5393679615721884	3846.8990795897853	891.0221207762206	120.14988583067975	3780.560062217003	487.75449202365473	212.8204547484945	3742.533432717518	56.243672173696254	297.58474541550873	3608.0105258324475	-16.760642123334822	182.56143194820734	3876.718422700779	1032.9256232759412	5.489642331728643	3827.575667967454	1098.8388820139794	-45.8881288242372	3771.230301857634	1160.9171122721	-102.1478453283345	3711.1768354272303	1210.714878244132	-160.11881864966475	3646.6367352035895	1264.2439127149462	-221.38690330225958	3586.621962259409	1312.8408586555831	-276.3395099423739	3469.8291083367935	1408.6608325736306	-328.4724867675409	3691.8685304144174	1249.0870989281807	-222.88773471504965	3752.8447882278906	1239.0521021327372	-336.3262250639619	3765.903627629454	961.4315071044247	-328.33249253415573	3822.251419559815	720.1591252691945	-383.58513829403347	3825.093212868057	700.655332143665	-394.8362127005027	3814.3044070009587	687.450065890908	-405.43076026455867	3807.445238085097	676.899566232743	-411.515294061179	3802.286657643285	666.9454657331589	-415.48113922397596	3829.383118917262	692.522401594068	-391.03984559072506	3835.413940060097	651.7089783178161	-398.46563726988364	3830.614521725674	631.257819719996	-404.65746544415197	3821.6918101750175	627.1778575097438	-409.5465870395559	3810.3005053060224	629.6251230201801	-414.29458821722073	3830.524798019375	690.6372570908605	-387.3119243880472	3837.027184202628	649.8071282486507	-392.5380885835148	3831.9099076300104	627.3844213196138	-398.77991069463604	3821.2024786831807	622.4110510243712	-404.431462504917	3808.766270637922	625.063996296856	-409.50656883576374	3831.2743231388777	690.2491880473585	-384.4712720937362	3838.035684167779	653.0344954553065	-386.63822496544435	3833.686622069692	633.4474328630441	-391.544501996427	3823.4174820430467	628.6272248765922	-396.7122300754496	3811.7522755972673	631.1107707088978	-401.34969625967807	3831.200724664864	691.7540393097594	-381.1190317522277	3837.6836760433985	658.2076387173507	-380.9839935889061	3834.3443502494847	642.6184238380998	-384.0701510606817	3826.9232856291324	639.1486874751753	-387.431916297772	3816.6296866391226	641.3752606781248	-391.3053796302594	3643.532096671135	1244.4103235181665	-177.63367351977686	3575.7450407767856	1179.3389484752554	-81.72004948815423	3693.8802549977145	992.7446643410992	-209.20216526369404	3857.861787497969	808.9537789053703	-327.9503886776146	3842.965497453712	799.3858057502694	-348.42194625642827	3837.8527890930313	780.0497183597657	-383.25673129908773	3834.8022894978776	764.587939036388	-407.76537612268913	3832.695499464741	749.9904888734171	-428.41078546114005	3842.3350273968335	791.4619343939286	-350.1865967291742	3825.226613779607	756.8507575670407	-389.46539819903774	3819.1534793107885	732.1796176007822	-422.1875465234916	3819.4914767218256	720.832105912734	-442.23706422666504	3822.5460338694456	714.1315120008888	-458.6338456747904	3844.5948264564504	787.209650562164	-349.75470121953725	3829.12845167227	751.1510557842042	-387.83091466465225	3822.8624078835182	723.7803910224357	-423.3596236124344	3823.443413347238	709.8743264193058	-447.46337068264603	3826.8698655271837	702.4378031797334	-465.3629706732363	3846.5686551500453	785.0746424477888	-348.4019741260919	3834.247647575609	750.864652515325	-381.21917545396855	3829.1800988641635	726.6057820557044	-411.945035274395	3829.949749000937	712.9785429698921	-435.06697523697227	3833.270633322055	705.8850507786921	-451.8364325577178	3849.8063572007186	783.7268916507371	-346.0614847242923	3840.297138583651	751.4606758793922	-374.57913427297603	3836.908032592892	731.5564179622081	-398.6643447379525	3837.7929377692103	721.3851149460769	-415.278566408831	3840.920887270179	714.968184953586	-429.9891166733939
48	0.196	3921.0129	906.651	56.2195	4004.3759779901543	893.941826192153	3.9025792817391824	3922.948550889825	493.77932354959427	-90.22088553769721	3897.0665415535755	107.26391495670697	-159.57802458170042	3822.0035545049673	32.360420096067145	-0.5269524543723862	3846.9732575800817	891.0456096981567	120.15480141985013	3780.6391803129172	487.78563436163273	212.85568728994068	3742.59708313967	56.27629090518007	297.5897254292844	3608.099531296738	-16.75745830327753	182.5602066641051	3876.7570852176927	1032.9442714863696	5.505405217662311	3827.7134909387073	1098.9693184114367	-45.833059939623666	3771.441451789604	1161.140718423461	-102.06957527880677	3711.4100701213088	1210.9766589067262	-160.03473404230758	3646.8931874721798	1264.5464497718565	-221.29527676294668	3586.8999266319975	1313.1808707511784	-276.24019058111776	3470.1087394564042	1409.009189244153	-328.3569478918575	3692.111626038944	1249.3853129630556	-222.78742010463256	3753.1136482341476	1239.5178886798808	-336.22598176608557	3766.180707151034	962.0118589775992	-328.4013559935033	3822.2937178761194	720.9237472105814	-384.18630476915405	3825.2101407585287	701.5388917983682	-395.4518952851586	3814.4673177010936	688.3411963523113	-406.11878086571863	3807.6251664028205	677.7833587057819	-412.2624217970675	3802.467937318049	667.8123535045299	-416.28501129416026	3829.4520181921134	693.3807299021163	-391.68563198290775	3835.4725582110996	652.6245028649764	-399.2229428395922	3830.6718032140216	632.1647513264533	-405.50587097760206	3821.764474313929	628.0587158852023	-410.44327055101695	3810.3968382176436	630.4704171912078	-415.22559288301204	3830.553522303368	691.4569968736882	-387.97821786315404	3837.024148037483	650.6617965755872	-393.3242427480225	3831.9001525477497	628.2243752493943	-399.6678340741903	3821.208758090409	623.2169871109728	-405.3787641581059	3808.7972207932353	625.8297735739726	-410.49197500239586	3831.2747667681138	691.0406258662084	-385.14915004269955	3837.982648757171	653.833897537217	-387.43340919795423	3833.6224056002206	634.2284948033098	-392.43061341222733	3823.365904115651	629.3725450173179	-397.6567984064251	3811.7225546346817	631.8169432068424	-402.3306520526643	3831.170125371431	692.5078886237641	-381.80748532633703	3837.584350954915	658.9470492474449	-381.78640233135803	3834.2279987190736	643.3345058055992	-384.94833104099166	3826.812247410622	639.8345187003902	-388.3541665646577	3816.5357626022787	642.0240074870139	-392.26068756300657	3643.7866436941886	1244.6891406163984	-177.55604712416144	3576.004798924804	1179.6692520654683	-81.69227950785941	3694.014771036851	993.144925096833	-209.27438165148735	3857.90642357045	809.5357892421821	-328.04108094483814	3842.9539142830454	800.103465118811	-348.4434356325817	3837.7622634903646	780.8719367706167	-383.2440667148887	3834.6597250072073	765.4741386766808	-407.7413719046903	3832.5120644808007	750.9224704607291	-428.38797455255093	3842.3311696309274	792.1628668695496	-350.24596190432464	3825.149325399036	757.6898780954524	-389.5247237278332	3819.0125007806782	733.1015880276906	-422.2489126175191	3819.3072972164773	721.7947482078059	-442.2907001893585	3822.3236655825713	715.1205090794836	-458.6750127326384	3844.6009127587395	787.8811148897261	-349.8480145780961	3829.068298543666	751.9413691521969	-387.94255160409745	3822.7342906989347	724.6567572022162	-423.47796940540456	3823.2639119816895	710.7976724144971	-447.5745408953872	3826.6489365450807	703.3889707843088	-465.4615435295827	3846.5837732034265	785.721866350481	-348.51933368470185	3834.211629537273	751.5976533519873	-381.3740061859894	3829.0865143617048	727.4091489943138	-412.1102654039749	3829.8074881368675	713.8247629729927	-435.22770108343803	3833.0898408750804	706.7562627654106	-451.9864592269348	3849.832969088925	784.3413468322382	-346.2060843611802	3840.2843551818914	752.1339999508026	-374.7750981347461	3836.8519818306845	732.2784782850878	-398.8755731207997	3837.7027510017538	722.134751345137	-415.48986496887284	3840.797355597185	715.7378413914199	-430.1928688912196
